<?xml version="1.0" standalone="no"?>
<!DOCTYPE svg PUBLIC "-//W3C//DTD SVG 20010904//EN"
 "http://www.w3.org/TR/2001/REC-SVG-20010904/DTD/svg10.dtd">
<svg version="1.0" xmlns="http://www.w3.org/2000/svg"
 width="934.000000pt" height="934.000000pt" viewBox="0 0 934.000000 934.000000"
 preserveAspectRatio="xMidYMid meet">
<metadata>
Created by potrace 1.14, written by Peter Selinger 2001-2017
</metadata>
<g transform="translate(0.000000,934.000000) scale(0.100000,-0.100000)"
fill="#000000" stroke="none">
<path d="M6627 8704 c-1 -1 -45 -5 -97 -8 -52 -3 -113 -8 -135 -11 -48 -6
-158 -26 -225 -40 -14 -3 -36 -7 -49 -10 -179 -34 -535 -178 -726 -295 -37
-22 -71 -40 -75 -40 -5 0 -10 -3 -12 -7 -1 -5 -32 -28 -68 -52 -201 -138 -364
-291 -627 -588 l-28 -32 -61 57 c-95 90 -176 164 -224 204 -25 21 -58 49 -75
63 -16 14 -48 38 -70 53 -22 15 -42 29 -45 33 -13 14 -184 121 -260 162 -394
213 -816 317 -1265 311 -88 -1 -178 -4 -200 -7 -22 -4 -69 -9 -105 -12 -35 -4
-67 -8 -70 -10 -3 -1 -25 -6 -50 -9 -111 -15 -397 -97 -525 -151 -488 -206
-896 -541 -1181 -970 -197 -296 -335 -636 -397 -975 -31 -167 -41 -293 -40
-500 0 -157 9 -336 18 -390 6 -31 12 -72 20 -130 4 -25 13 -76 21 -115 9 -38
17 -79 19 -89 11 -48 58 -208 82 -271 147 -399 353 -725 644 -1014 61 -62 156
-147 254 -229 11 -9 50 -42 85 -72 35 -30 74 -63 85 -72 11 -9 31 -27 45 -38
36 -32 114 -98 200 -171 41 -35 89 -76 105 -90 17 -15 68 -59 115 -99 47 -40
96 -82 110 -94 14 -11 55 -46 90 -76 36 -30 70 -59 76 -65 6 -5 35 -30 64 -55
73 -61 204 -173 210 -180 3 -3 32 -28 65 -55 33 -28 62 -52 65 -55 3 -3 127
-109 275 -235 258 -219 314 -267 339 -290 6 -6 36 -30 66 -55 30 -25 62 -52
70 -60 18 -16 21 -19 175 -150 55 -47 102 -87 105 -90 3 -3 48 -41 100 -85 52
-44 100 -84 106 -90 6 -5 35 -30 64 -55 44 -37 173 -147 320 -273 14 -12 68
-58 120 -102 52 -44 97 -82 100 -85 6 -6 115 -99 148 -126 13 -10 33 -27 45
-37 36 -31 138 -83 202 -105 167 -56 350 -50 513 17 73 30 109 49 130 69 7 6
18 12 23 12 9 0 190 180 463 461 82 85 276 284 430 443 155 158 319 328 366
376 146 151 642 660 715 735 39 39 201 205 360 370 160 164 328 337 375 385
236 242 583 600 606 626 247 276 450 628 562 974 40 122 74 249 86 320 3 19 8
46 11 60 3 14 8 48 11 75 3 28 7 53 9 56 23 37 24 617 1 749 -2 14 -7 48 -10
77 -23 206 -115 515 -214 723 -20 41 -39 82 -42 91 -20 59 -207 346 -300 460
-104 127 -247 270 -360 361 -41 33 -85 68 -96 78 -36 30 -164 114 -254 166
-235 137 -533 250 -795 300 -22 4 -47 9 -55 10 -8 2 -40 6 -70 10 -30 3 -57 7
-60 9 -13 8 -395 26 -403 19z"/>
</g>
</svg>
